HIERARCHY
ROOT Hips
{
	OFFSET 0.000000 0.000000 0.000000
	CHANNELS 6 Xposition Yposition Zposition Zrotation Yrotation Xrotation 
	JOINT LowerBack
	{
		OFFSET 0.000000 0.000000 0.000000
		CHANNELS 3 Zrotation Yrotation Xrotation
		JOINT Spine
		{
			OFFSET 0.028270 2.035590 -0.193380
			CHANNELS 3 Zrotation Yrotation Xrotation
			JOINT Spine1
			{
				OFFSET 0.056720 2.048850 -0.042750
				CHANNELS 3 Zrotation Yrotation Xrotation
				JOINT Neck
				{
					OFFSET 0.000000 0.000000 0.000000
					CHANNELS 3 Zrotation Yrotation Xrotation
					JOINT Neck1
					{
						OFFSET -0.054170 1.746240 0.172020
						CHANNELS 3 Zrotation Yrotation Xrotation
						JOINT Head
						{
							OFFSET 0.104070 1.761360 -0.123970
							CHANNELS 3 Zrotation Yrotation Xrotation
							End Site
							{
								OFFSET 0.000000 0.000000 0.000000
							}
						}
					}
				}
				JOINT LeftShoulder
				{
					OFFSET 0.000000 0.000000 0.000000
					CHANNELS 3 Zrotation Yrotation Xrotation
					JOINT LeftArm
					{
						OFFSET 3.362410 1.200890 -0.311210
						CHANNELS 3 Zrotation Yrotation Xrotation
						JOINT LeftForeArm
						{
							OFFSET 4.983000 -0.000000 -0.000000
							CHANNELS 3 Zrotation Yrotation Xrotation
							JOINT LeftHand
							{
								OFFSET 3.483560 -0.000000 -0.000000
								CHANNELS 3 Zrotation Yrotation Xrotation
								JOINT LeftFingerBase
								{
									OFFSET 0.000000 0.000000 0.000000
									CHANNELS 3 Zrotation Yrotation Xrotation
									JOINT LeftHandIndex1
									{
										OFFSET 0.715260 -0.000000 -0.000000
										CHANNELS 3 Zrotation Yrotation Xrotation
										End Site
										{
											OFFSET 0.000000 0.000000 0.000000
										}
									}
								}
								JOINT LThumb
								{
									OFFSET 0.000000 0.000000 0.000000
									CHANNELS 3 Zrotation Yrotation Xrotation
									End Site
									{
										OFFSET 0.000000 0.000000 0.000000
									}
								}
							}
						}
					}
				}
				JOINT RightShoulder
				{
					OFFSET 0.000000 0.000000 0.000000
					CHANNELS 3 Zrotation Yrotation Xrotation
					JOINT RightArm
					{
						OFFSET -3.136600 1.374050 -0.404650
						CHANNELS 3 Zrotation Yrotation Xrotation
						JOINT RightForeArm
						{
							OFFSET -5.241900 -0.000000 -0.000000
							CHANNELS 3 Zrotation Yrotation Xrotation
							JOINT RightHand
							{
								OFFSET -3.444170 -0.000000 -0.000000
								CHANNELS 3 Zrotation Yrotation Xrotation
								JOINT RightFingerBase
								{
									OFFSET 0.000000 0.000000 0.000000
									CHANNELS 3 Zrotation Yrotation Xrotation
									JOINT RightHandIndex1
									{
										OFFSET -0.622530 -0.000000 -0.000000
										CHANNELS 3 Zrotation Yrotation Xrotation
										End Site
										{
											OFFSET 0.000000 0.000000 0.000000
										}
									}
								}
								JOINT RThumb
								{
									OFFSET 0.000000 0.000000 0.000000
									CHANNELS 3 Zrotation Yrotation Xrotation
									End Site
									{
										OFFSET 0.000000 0.000000 0.000000
									}
								}
							}
						}
					}
				}
			}
		}
	}
}
}
MOTION
Frames: 7
Frame Time: 0.008333
1.715702 17.413051 0.225400 6.686051 -55.715864 -8.491274 -8.306888 1.676554 -8.325186 -2.703506 2.112592 -4.526172 -4.711073 2.068254 -0.897359 -1.509861 -3.924090 -5.719895 -0.708744 -0.082501 0.539762 0.000000 0.000000 0.000000 9.125014 10.286695 -1.297079 -18.829076 -8.191463 -16.229106 179.434159 -67.908430 -179.995340 -1.559831 -3.741186 0.064645 0.160657 0.598597 0.000000 0.000000 0.000000 0.000000 0.000000 0.000000 0.000000 -8.049759 2.726029 1.525649 5.224721 48.214137 -43.623750 -1.357392 1.778885 -0.052656 -11.705022 7.068592 -0.778930 0.206208 -0.384745 -0.000000 0.000000 0.000000 0.000000 0.000000 0.000000 0.000000 
1.718304 17.419768 0.216669 6.760947 -55.667738 -8.520717 -8.382319 1.733701 -8.236156 -2.710113 2.182902 -4.510619 -4.672302 2.140601 -0.909356 -1.457383 -4.241675 -5.796640 -0.667451 -0.078429 0.520138 0.000000 0.000000 0.000000 9.237618 10.209953 -1.328150 -19.421316 -7.895208 -16.326275 179.420807 -67.580298 -179.996190 -1.464427 -3.734097 0.060840 0.159094 0.599874 0.000000 0.000000 0.000000 0.000000 0.000000 0.000000 0.000000 -8.207076 2.505030 1.519525 4.544880 48.653185 -44.366136 -1.412895 1.733650 -0.053560 -11.929964 6.128879 -0.692346 0.215472 -0.369549 -0.000000 0.000000 0.000000 0.000000 0.000000 0.000000 0.000000 
1.722113 17.424694 0.210028 6.816958 -55.590832 -8.497642 -8.418125 1.759635 -8.148218 -2.704682 2.217962 -4.490625 -4.635442 2.178661 -0.905246 -1.447336 -4.780576 -5.891775 -0.607790 -0.072881 0.497424 0.000000 0.000000 0.000000 9.208934 10.184305 -1.334895 -19.871017 -7.535188 -16.427002 179.413972 -67.214177 -179.997213 -1.351048 -3.749352 0.056733 0.156412 0.601603 0.000000 0.000000 0.000000 0.000000 0.000000 0.000000 0.000000 -8.494222 2.080596 1.419386 4.472025 49.168463 -44.321548 -1.485254 2.453533 -0.052930 -11.534512 5.535919 -0.607449 0.208153 -0.363706 -0.000000 0.000000 0.000000 0.000000 0.000000 0.000000 0.000000 
1.727111 17.427640 0.205494 6.859097 -55.502539 -8.431838 -8.416549 1.754386 -8.065696 -2.691377 2.216930 -4.468707 -4.612548 2.181786 -0.888376 -1.448947 -5.478763 -5.994304 -0.544296 -0.067008 0.474129 0.000000 0.000000 0.000000 9.078516 10.206682 -1.316195 -20.203051 -7.086958 -16.529935 179.415591 -66.801972 -179.998241 -1.236140 -3.779623 0.052625 0.152860 0.603518 -0.000000 0.000000 0.000000 0.000000 0.000000 0.000000 0.000000 -8.821522 1.507761 1.234439 4.895622 49.695698 -43.058931 -1.561592 3.953808 -0.050824 -10.608910 5.170550 -0.523836 0.186841 -0.365671 -0.000000 0.000000 0.000000 0.000000 0.000000 0.000000 0.000000 
1.732986 17.428542 0.203037 6.889450 -55.421606 -8.333782 -8.395382 1.718411 -7.998815 -2.679622 2.180146 -4.448642 -4.619451 2.150319 -0.858730 -1.394328 -6.241359 -6.089818 -0.502253 -0.062789 0.453277 0.000000 0.000000 0.000000 8.933515 10.266102 -1.273745 -20.480857 -6.527176 -16.625566 179.426887 -66.327277 -179.999064 -1.140507 -3.813609 0.049112 0.148926 0.605320 0.000000 0.000000 0.000000 0.000000 0.000000 0.000000 0.000000 -9.015043 0.869752 0.992258 5.599994 50.028855 -39.784825 -1.622761 6.432604 -0.048153 -9.432602 4.708795 -0.426813 0.158889 -0.371098 -0.000000 0.000000 0.000000 0.000000 0.000000 0.000000 0.000000 
1.739259 17.427350 0.202579 6.907938 -55.367705 -8.213722 -8.379294 1.650790 -7.961695 -2.673812 2.108954 -4.434609 -4.646445 2.084455 -0.815076 -1.242530 -6.928328 -6.157369 -0.499652 -0.061840 0.439712 0.000000 0.000000 0.000000 8.847553 10.349502 -1.208538 -20.782790 -5.830862 -16.701745 179.449637 -65.779905 -179.999489 -1.082907 -3.841170 0.047096 0.145043 0.606650 -0.000000 0.000000 0.000000 0.000000 0.000000 0.000000 0.000000 -8.947802 0.291287 0.733353 6.243499 49.892740 -34.555313 -1.657079 10.075419 -0.046424 -8.412173 3.998176 -0.327380 0.132897 -0.377988 -0.000000 0.000000 0.000000 0.000000 0.000000 0.000000 0.000000 
1.745733 17.424126 0.203804 6.916536 -55.358931 -8.082113 -8.378318 1.550555 -7.960046 -2.667800 2.005818 -4.428737 -4.659865 1.984822 -0.761383 -1.023478 -7.434380 -6.179724 -0.534290 -0.064325 0.437833 0.000000 0.000000 0.000000 8.821413 10.456907 -1.120399 -21.152779 -4.987957 -16.758071 179.485974 -65.168612 -179.999419 -1.072570 -3.858438 0.046680 0.141379 0.607179 0.000000 0.000000 0.000000 0.000000 0.000000 0.000000 0.000000 -8.637386 -0.136711 0.481514 6.506738 49.236298 -28.834779 -1.671702 14.710475 -0.046794 -7.819579 3.299014 -0.256043 0.112571 -0.388792 0.000000 0.000000 0.000000 0.000000 0.000000 0.000000 0.000000 
